HIERARCHY
ROOT root
{
	OFFSET 0.000000 0.000000 0.000000
	CHANNELS 6 Xposition Yposition Zposition Zrotation Yrotation Xrotation
	JOINT lhip
	{
		OFFSET 0.058581 -0.082280 -0.017664
		CHANNELS 3 Zrotation Yrotation Xrotation
		JOINT lknee
		{
			OFFSET 0.043451 -0.386469 0.008037
			CHANNELS 3 Zrotation Yrotation Xrotation
			JOINT lankle
			{
				OFFSET -0.014790 -0.426874 -0.037428
				CHANNELS 3 Zrotation Yrotation Xrotation
				JOINT ltoe
				{
					OFFSET 0.041054 -0.060286 0.122042
					CHANNELS 3 Zrotation Yrotation Xrotation
					End Site
					{
						OFFSET 0.000000 0.000000 0.000000
					}
				}
			}
		}
	}
	JOINT rhip
	{
		OFFSET -0.060310 -0.090513 -0.013543
		CHANNELS 3 Zrotation Yrotation Xrotation
		JOINT rknee
		{
			OFFSET -0.043257 -0.383688 -0.004843
			CHANNELS 3 Zrotation Yrotation Xrotation
			JOINT rankle
			{
				OFFSET 0.019056 -0.420046 -0.034562
				CHANNELS 3 Zrotation Yrotation Xrotation
				JOINT rtoe
				{
					OFFSET -0.034840 -0.062106 0.130323
					CHANNELS 3 Zrotation Yrotation Xrotation
					End Site
					{
						OFFSET 0.000000 0.000000 0.000000
					}
				}
			}
		}
	}
	JOINT lowerback
	{
		OFFSET 0.004439 0.124404 -0.038385
		CHANNELS 3 Zrotation Yrotation Xrotation
		JOINT upperback
		{
			OFFSET 0.004488 0.137956 0.026820
			CHANNELS 3 Zrotation Yrotation Xrotation
			JOINT chest
			{
				OFFSET -0.002265 0.056032 0.002855
				CHANNELS 3 Zrotation Yrotation Xrotation
				JOINT lowerneck
				{
					OFFSET -0.013390 0.211636 -0.033468
					CHANNELS 3 Zrotation Yrotation Xrotation
					JOINT upperneck
					{
						OFFSET 0.010113 0.088937 0.050410
						CHANNELS 3 Zrotation Yrotation Xrotation
						End Site
						{
							OFFSET 0.000000 0.000000 0.000000
						}
					}
				}
				JOINT lclavicle
				{
					OFFSET 0.071702 0.114000 -0.018898
					CHANNELS 3 Zrotation Yrotation Xrotation
					JOINT lshoulder
					{
						OFFSET 0.122921 0.045205 -0.019046
						CHANNELS 3 Zrotation Yrotation Xrotation
						JOINT lelbow
						{
							OFFSET 0.255332 -0.015649 -0.022946
							CHANNELS 3 Zrotation Yrotation Xrotation
							JOINT lwrist
							{
								OFFSET 0.265709 0.012698 -0.007375
								CHANNELS 3 Zrotation Yrotation Xrotation
								End Site
								{
									OFFSET 0.000000 0.000000 0.000000
								}
							}
						}
					}
				}
				JOINT rclavicle
				{
					OFFSET -0.082954 0.112472 -0.023707
					CHANNELS 3 Zrotation Yrotation Xrotation
					JOINT rshoulder
					{
						OFFSET -0.113228 0.046853 -0.008472
						CHANNELS 3 Zrotation Yrotation Xrotation
						JOINT relbow
						{
							OFFSET -0.260127 -0.014369 -0.031269
							CHANNELS 3 Zrotation Yrotation Xrotation
							JOINT rwrist
							{
								OFFSET -0.269108 0.006794 -0.006027
								CHANNELS 3 Zrotation Yrotation Xrotation
								End Site
								{
									OFFSET 0.000000 0.000000 0.000000
								}
							}
						}
					}
				}
			}
		}
	}
}
MOTION
Frames: 13
Frame Time: 0.033333
0.037907 0.784661 0.990396 94.944590 5.206471 88.938906 4.391703 -4.232008 -7.921749 -4.785324 -10.977786 21.376762 3.593513 11.750825 -17.797949 0.000000 -0.000000 0.000000 -4.904848 1.004280 -17.599514 -0.629481 -0.709563 27.456067 7.455148 -6.467074 -9.757936 0.000000 -0.000000 0.000000 -5.435779 4.301258 14.133372 4.258721 -3.149578 5.766706 3.792826 -0.780539 2.665593 3.739603 -0.703692 13.026511 6.947489 -8.001979 10.185878 -16.177193 -11.783236 3.955602 -58.128363 -15.470901 11.537941 15.808150 -35.663467 11.947796 -3.206194 6.034599 5.170166 17.779154 5.625532 5.050333 52.709408 -5.264510 7.442419 -14.280062 34.046824 14.428646 16.450935 -5.509997 -0.754410 
0.054026 0.781823 0.989072 96.642399 5.242061 88.704786 4.705890 -4.259143 -6.604399 -4.987329 -12.011378 21.488146 3.647913 11.491027 -18.986602 0.000000 -0.000000 0.000000 -5.855318 0.435450 -18.937773 -0.786937 -1.543946 26.490219 7.906757 -6.829823 -8.157532 0.000000 -0.000000 0.000000 -5.550868 3.784326 14.316146 4.646807 -3.799257 6.014657 4.115383 -1.376046 2.969040 3.977328 -0.762582 13.322036 7.006642 -7.964496 10.193600 -15.875610 -12.410504 3.905210 -59.085829 -17.311108 12.299624 15.903769 -35.510542 12.602098 -3.355715 6.268710 5.625259 17.794528 4.859262 4.994668 54.105243 -6.485179 7.889457 -14.228900 33.354536 15.094132 15.842113 -5.814000 -1.245095 
0.070723 0.778149 0.987201 98.068836 5.228613 88.708023 5.077545 -4.245048 -5.616458 -5.208822 -12.972003 21.841376 3.665036 11.295722 -20.123679 0.000000 -0.000000 0.000000 -6.773554 -0.230262 -20.278084 -0.682157 -2.498032 25.363919 8.446634 -6.980242 -6.236665 0.000000 -0.000000 0.000000 -5.625481 3.229506 14.414146 4.983570 -4.250245 5.832526 4.358422 -1.903855 3.417411 4.139392 -0.784703 13.455586 6.735292 -7.603621 10.538272 -15.870915 -12.410801 3.747031 -60.400966 -19.082261 13.304362 15.679144 -35.743042 13.447024 -3.768924 6.541610 4.803241 18.315426 3.678615 5.170298 55.441613 -7.649492 8.396032 -14.384566 32.656551 15.399248 15.773558 -6.068451 -1.485154 
0.088656 0.773203 0.984783 99.092415 5.221415 88.377501 5.533739 -3.849526 -4.277566 -5.393213 -14.011855 22.453232 3.490612 11.113381 -21.477439 0.000000 -0.000000 0.000000 -7.340575 -0.972095 -21.080362 -0.582411 -3.430873 24.120332 9.049091 -6.683367 -3.928611 0.000000 -0.000000 0.000000 -5.661598 2.860675 14.652645 5.175208 -4.747174 5.956032 4.489781 -2.147643 3.254950 4.011677 -0.734237 14.377685 8.048180 -8.218727 9.960991 -15.877407 -13.033433 4.425780 -61.505777 -20.196708 14.069007 15.086683 -36.626550 14.915481 -2.991796 6.378573 4.417783 18.705585 3.075780 5.953181 57.277894 -8.787451 7.922391 -14.096867 31.847278 15.688189 14.094053 -6.269364 -2.225078 
0.107779 0.767440 0.981840 99.743960 5.103119 88.058282 5.910449 -3.756996 -2.806233 -5.412255 -14.571643 22.943268 3.359427 11.083139 -22.665514 0.000000 -0.000000 0.000000 -7.918218 -1.369591 -21.588114 -0.201806 -4.535398 22.643582 10.191039 -6.391468 -1.942070 0.000000 -0.000000 0.000000 -5.704215 2.481199 14.886905 5.402984 -5.062278 6.065471 4.531809 -2.502597 3.200623 4.216170 -0.550052 14.245711 8.037769 -8.172647 10.507385 -16.238443 -13.098336 4.666842 -63.229555 -21.305347 15.171031 15.115367 -37.220259 15.740795 -3.586252 6.015779 4.201932 19.385278 1.917332 5.945660 58.889487 -9.908874 7.740965 -15.132861 31.445675 15.277878 15.738505 -6.494147 -2.601367 
0.128699 0.760487 0.978639 100.190257 4.917791 87.935375 6.373513 -3.740126 -1.391797 -5.465149 -14.954134 23.364916 3.237587 11.117733 -23.717713 0.000000 -0.000000 0.000000 -8.186396 -1.601929 -21.889509 0.185078 -5.728810 20.995173 10.922358 -6.009158 -0.443033 0.000000 -0.000000 0.000000 -5.734573 1.938951 14.690793 5.462164 -5.413183 6.135787 4.551833 -2.903898 3.263582 4.206674 -0.293798 14.508540 8.025415 -7.747765 10.716908 -16.792323 -13.127033 5.170618 -64.869153 -21.963725 15.933688 14.980488 -37.952018 16.472411 -3.853374 5.665511 4.195596 19.693198 1.083583 6.275079 60.635186 -10.452818 7.482784 -15.315236 30.378822 15.086959 15.826648 -6.668384 -3.378272 
0.150752 0.752650 0.975426 100.659755 4.666616 87.842110 6.918269 -3.712929 0.207227 -5.501933 -15.225373 23.500364 2.570971 11.063739 -24.556584 0.000000 -0.000000 0.000000 -8.136665 -1.684281 -21.944922 0.445598 -6.697130 19.513368 11.486645 -5.781053 0.460153 0.000000 -0.000000 0.000000 -5.542972 1.179911 14.290378 5.453016 -5.872811 6.489682 4.417939 -3.364119 3.298325 4.158300 -0.118868 14.162700 7.524323 -7.284534 11.095459 -17.445939 -13.125942 5.525215 -66.403185 -22.383693 16.714738 14.810724 -38.441827 17.159918 -4.221036 5.357277 4.066657 19.948414 0.488229 6.334293 62.301728 -11.053437 7.481472 -15.868158 29.274358 14.490980 15.475224 -6.671129 -3.901544 
0.174125 0.743631 0.972366 101.026384 4.286619 87.999743 7.466232 -3.430110 1.760463 -5.383964 -15.922376 23.280511 2.076820 10.810101 -25.108628 0.000000 -0.000000 0.000000 -7.774571 -1.917546 -22.288678 0.764936 -6.910927 18.831199 11.233364 -5.441351 0.961961 0.000000 -0.000000 0.000000 -5.269009 0.357594 13.658488 5.389816 -6.287014 6.601757 4.252751 -3.790976 3.271796 3.713720 0.187873 14.076298 7.396405 -6.783963 11.056413 -18.032442 -13.293493 5.931970 -67.913627 -22.441726 17.485922 14.390290 -38.528759 18.450853 -3.945713 4.968991 3.537486 20.038828 -0.147829 6.527828 63.734378 -11.535801 7.140529 -15.791216 28.029424 14.790502 14.530816 -6.937275 -4.182906 
0.198362 0.733459 0.969896 101.445335 3.805784 88.242114 8.152509 -3.346690 3.374786 -5.342440 -16.711079 22.683633 1.561803 10.421483 -25.127219 0.000000 -0.000000 0.000000 -7.174650 -1.700357 -23.010936 0.705995 -6.758371 20.304589 9.609465 -5.926761 -0.098579 0.000000 -0.000000 0.000000 -4.894356 -0.628675 13.031077 5.344349 -6.664083 6.520961 3.970497 -4.244269 3.288361 3.060366 0.566637 13.908972 7.339714 -6.461334 11.339340 -18.376370 -13.533173 6.387472 -69.320117 -22.301359 17.995974 13.935125 -38.365360 20.116977 -4.002397 4.632752 3.400911 20.051756 -0.557569 6.707364 64.997450 -11.946629 6.428470 -16.225893 26.985885 14.372764 14.743456 -6.995518 -5.092985 
0.222187 0.722787 0.968364 101.862630 3.191581 88.604129 8.649578 -3.335337 4.680853 -5.192262 -17.514424 22.288915 0.854452 9.946767 -24.618196 0.000000 -0.000000 0.000000 -6.659302 -0.874728 -24.294117 0.091634 -6.154346 24.667498 7.952928 -7.141367 -2.418498 0.000000 -0.000000 0.000000 -4.381430 -1.868359 12.373695 5.316501 -6.857981 6.769325 3.619890 -4.699646 3.248326 2.497018 1.087229 13.102848 6.571731 -5.821325 11.845187 -18.778228 -13.657688 6.589929 -70.355847 -22.140258 18.358134 13.743685 -38.315883 21.367358 -4.635889 4.498087 3.170505 19.990183 -0.631477 6.620410 66.070116 -12.036057 6.015442 -16.957846 25.484440 13.297839 14.983295 -6.949832 -5.592456 
0.245623 0.712469 0.968239 102.321516 2.559811 89.213846 8.855419 -3.761809 5.375302 -5.034929 -18.109387 22.405791 0.349450 9.646268 -23.709774 0.000000 -0.000000 0.000000 -6.334433 0.086913 -24.980003 -0.249704 -5.951267 27.933028 6.909928 -8.247703 -4.958413 0.000000 -0.000000 0.000000 -3.417944 -3.136232 11.787955 5.287368 -6.990056 6.802671 3.221670 -5.139692 3.107049 1.725400 1.438082 12.268379 5.343623 -4.567816 12.371451 -19.508759 -13.700100 6.624506 -70.891046 -21.612677 18.742705 13.507919 -38.503166 22.060536 -4.741847 4.259951 3.560234 19.763146 -0.759599 6.122042 66.543766 -12.380239 5.844788 -17.411479 24.333296 12.030097 14.908543 -6.928622 -5.519659 
0.268342 0.702546 0.969594 102.898996 1.948827 90.101823 9.055468 -4.251520 5.232560 -5.110623 -18.685900 23.263977 -0.403126 8.984155 -22.247214 0.000000 -0.000000 0.000000 -6.216473 0.360963 -24.875530 -0.165083 -6.346136 29.337421 5.935277 -8.398279 -7.214270 0.000000 -0.000000 0.000000 -2.106832 -4.222667 11.098661 5.226478 -7.405296 6.653839 2.765085 -5.463751 2.746777 0.645993 1.878971 12.080988 4.720585 -3.486552 12.310544 -20.106957 -13.920569 7.055133 -71.003419 -20.876821 18.631461 13.278112 -39.198571 22.618487 -5.509288 4.128769 3.914049 19.492561 -0.644251 6.216973 66.619990 -12.430402 4.928835 -17.779322 23.377390 11.125397 16.566709 -6.731866 -5.881656 
0.289581 0.692875 0.972367 102.754368 1.439734 90.970024 9.168583 -4.756449 5.017827 -5.416024 -18.897510 24.516279 -1.719660 8.820936 -20.867884 0.000000 -0.000000 0.000000 -6.134402 0.946661 -24.514416 0.171710 -6.993798 29.798029 5.358214 -8.123479 -8.953576 0.000000 -0.000000 0.000000 -0.854449 -4.753554 10.807792 5.233408 -7.286345 6.201655 2.475834 -5.575795 2.353841 -0.148803 2.394237 11.950907 4.054881 -2.809891 12.030236 -20.325908 -14.073038 7.136401 -71.276272 -20.084963 18.969437 12.838824 -39.482970 23.599708 -5.700582 3.868032 4.101707 19.221176 -0.540714 6.265491 66.150583 -12.264850 4.308018 -17.414911 22.115535 10.839020 15.444842 -6.785945 -5.895148 
